<?xml version="1.0" encoding="UTF-8"?>
<svg id="Layer_2" data-name="Layer 2" xmlns="http://www.w3.org/2000/svg" viewBox="0 0 623.5 92.07">
  <defs>
    <style>
      .cls-1 {
        fill: #628935;
        stroke-width: 0px;
      }
    </style>
  </defs>
  <g id="OBJECTS">
    <path class="cls-1" d="m50.89,1.91l9.5,29.24c.37,1.14,1.43,1.91,2.63,1.91h30.74c2.67,0,3.79,3.42,1.62,4.99l-24.87,18.07c-.97.7-1.37,1.95-1,3.09l9.5,29.24c.83,2.54-2.08,4.66-4.25,3.09l-24.87-18.07c-.97-.7-2.28-.7-3.25,0l-24.87,18.07c-2.16,1.57-5.07-.54-4.25-3.09l9.5-29.24c.37-1.14-.04-2.38-1-3.09L1.14,38.05c-2.16-1.57-1.05-4.99,1.62-4.99h30.74c1.2,0,2.26-.77,2.63-1.91L45.64,1.91c.83-2.54,4.42-2.54,5.25,0Z"/>
    <path class="cls-1" d="m182.63,1.91l9.5,29.24c.37,1.14,1.43,1.91,2.63,1.91h30.74c2.67,0,3.79,3.42,1.62,4.99l-24.87,18.07c-.97.7-1.37,1.95-1,3.09l9.5,29.24c.83,2.54-2.08,4.66-4.25,3.09l-24.87-18.07c-.97-.7-2.28-.7-3.25,0l-24.87,18.07c-2.16,1.57-5.07-.54-4.25-3.09l9.5-29.24c.37-1.14-.04-2.38-1-3.09l-24.87-18.07c-2.16-1.57-1.05-4.99,1.62-4.99h30.74c1.2,0,2.26-.77,2.63-1.91l9.5-29.24c.83-2.54,4.42-2.54,5.25,0Z"/>
    <path class="cls-1" d="m314.37,1.91l9.5,29.24c.37,1.14,1.43,1.91,2.63,1.91h30.74c2.67,0,3.79,3.42,1.62,4.99l-24.87,18.07c-.97.7-1.37,1.95-1,3.09l9.5,29.24c.83,2.54-2.08,4.66-4.25,3.09l-24.87-18.07c-.97-.7-2.28-.7-3.25,0l-24.87,18.07c-2.16,1.57-5.07-.54-4.25-3.09l9.5-29.24c.37-1.14-.04-2.38-1-3.09l-24.87-18.07c-2.16-1.57-1.05-4.99,1.62-4.99h30.74c1.2,0,2.26-.77,2.63-1.91l9.5-29.24c.83-2.54,4.42-2.54,5.25,0Z"/>
    <path class="cls-1" d="m446.12,1.91l9.5,29.24c.37,1.14,1.43,1.91,2.63,1.91h30.74c2.67,0,3.79,3.42,1.62,4.99l-24.87,18.07c-.97.7-1.37,1.95-1,3.09l9.5,29.24c.83,2.54-2.08,4.66-4.25,3.09l-24.87-18.07c-.97-.7-2.28-.7-3.25,0l-24.87,18.07c-2.16,1.57-5.07-.54-4.25-3.09l9.5-29.24c.37-1.14-.04-2.38-1-3.09l-24.87-18.07c-2.16-1.57-1.05-4.99,1.62-4.99h30.74c1.2,0,2.26-.77,2.63-1.91l9.5-29.24c.83-2.54,4.42-2.54,5.25,0Z"/>
    <path class="cls-1" d="m577.86,1.91l9.5,29.24c.37,1.14,1.43,1.91,2.63,1.91h30.74c2.67,0,3.79,3.42,1.62,4.99l-24.87,18.07c-.97.7-1.37,1.95-1,3.09l9.5,29.24c.83,2.54-2.08,4.66-4.25,3.09l-24.87-18.07c-.97-.7-2.28-.7-3.25,0l-24.87,18.07c-2.16,1.57-5.07-.54-4.25-3.09l9.5-29.24c.37-1.14-.04-2.38-1-3.09l-24.87-18.07c-2.16-1.57-1.05-4.99,1.62-4.99h30.74c1.2,0,2.26-.77,2.63-1.91l9.5-29.24c.83-2.54,4.42-2.54,5.25,0Z"/>
  </g>
</svg>