<?xml version="1.0" encoding="UTF-8"?>
<svg id="Layer_2" data-name="Layer 2" xmlns="http://www.w3.org/2000/svg" viewBox="0 0 133.07 83.15">
  <defs>
    <style>
      .cls-1 {
        fill: #fff;
        stroke-width: 0px;
      }
    </style>
  </defs>
  <g id="ELEMENTS">
    <g>
      <path class="cls-1" d="m66.99,61.72c0,3.51-.7,6.6-2.11,9.25-1.41,2.65-3.34,4.88-5.8,6.68-2.46,1.8-5.31,3.16-8.55,4.1-3.24.94-6.7,1.41-10.36,1.41H0V0h44.5c2.89,0,5.51.63,7.85,1.87,2.34,1.25,4.33,2.87,5.97,4.86,1.64,1.99,2.91,4.26,3.81,6.79.9,2.54,1.35,5.09,1.35,7.67,0,4.06-1.02,7.87-3.04,11.42-2.03,3.55-5,6.19-8.9,7.9,4.76,1.4,8.53,3.92,11.3,7.55,2.77,3.63,4.16,8.18,4.16,13.64ZM16.16,13.82v20.96h21.55c2.73,0,5.05-.94,6.97-2.81,1.91-1.87,2.87-4.45,2.87-7.73s-.88-5.74-2.64-7.61c-1.76-1.87-3.92-2.81-6.5-2.81h-22.25Zm34.55,44.85c0-1.48-.25-2.91-.76-4.27-.51-1.36-1.19-2.56-2.05-3.57-.86-1.01-1.87-1.82-3.05-2.4-1.17-.59-2.46-.88-3.86-.88h-24.83v21.9h24.01c1.48,0,2.87-.27,4.16-.82,1.29-.55,2.4-1.31,3.34-2.28.94-.98,1.68-2.13,2.22-3.46.55-1.33.82-2.73.82-4.22Z"/>
      <path class="cls-1" d="m102,83.15c-4.77,0-9.08-.81-12.94-2.44-7.64-3.25-13.03-8.72-16.17-16.4-1.47-3.71-2.21-7.6-2.21-11.69s.72-8.23,2.16-11.97c3.08-7.78,8.47-13.32,16.17-16.62,3.9-1.66,8.26-2.5,13.11-2.5s9.17.83,12.99,2.5c12.56,5.48,18.47,17.65,17.93,30.87-.04.91-.13,1.67-.28,2.27h-45.96c.23,2.35.79,4.43,1.7,6.24.91,1.82,2.08,3.37,3.52,4.65,1.44,1.29,3.06,2.27,4.88,2.95,1.82.68,3.7,1.02,5.67,1.02,3.02,0,5.88-.74,8.57-2.21,2.69-1.48,4.52-3.42,5.5-5.84l13.05,3.63c-2.19,4.54-5.69,8.27-10.5,11.18-4.8,2.91-10.53,4.37-17.19,4.37Zm15.44-35.86c-.38-4.46-2.03-8.04-4.94-10.72-2.91-2.68-6.45-4.03-10.61-4.03-2.04,0-3.95.36-5.73,1.08-1.78.72-3.35,1.72-4.71,3.01-1.36,1.29-2.48,2.84-3.35,4.65-.87,1.81-1.38,3.82-1.53,6.01h30.87Z"/>
      <path class="cls-1" d="m81.99,3.95h39.79v9.87h-39.79V3.95Z"/>
    </g>
  </g>
</svg>