<?xml version="1.0" encoding="UTF-8"?>
<svg id="Layer_2" data-name="Layer 2" xmlns="http://www.w3.org/2000/svg" viewBox="0 0 110.09 135.42">
  <defs>
    <style>
      .cls-1 {
        fill: #fff;
        stroke-width: 0px;
      }
    </style>
  </defs>
  <g id="ELEMENTS">
    <path class="cls-1" d="m79.06,120.48s.02,0,0,0c0-7.88,0-15.63,0-23.38,0-3.09-.42-6.11-1.51-9.01-.81-2.17-1.98-4.1-3.85-5.84,2.68-.47,5.2-.86,7.7-1.37,3.77-.78,7.42-1.97,10.87-3.7,6.62-3.33,11.57-8.3,14.29-15.21,3.78-9.64,4.73-19.53,1.84-29.61-1.09-3.79-3.01-7.17-5.57-10.17-.58-.68-.67-1.19-.39-2.06,2.14-6.54,1.2-12.91-1.14-19.2-.29-.77-.83-.83-1.47-.84-2.91-.06-5.65.72-8.34,1.7-3.96,1.46-7.66,3.44-11.22,5.71-.79.5-1.47.67-2.43.41-10.96-2.87-22.04-2.91-33.07-.74-3.88.76-7.03.59-10.42-1.68C30.25,2.76,25.61.96,20.65.22c-.81-.12-1.43-.21-1.93-.22l-1.52.54c-.38.45-.65,1.23-1.04,2.48-1.81,5.81-1.93,11.65-.32,17.51.24.86.12,1.43-.45,2.1-4.84,5.7-7.08,12.35-7.19,19.78-.09,5.91.48,11.73,2.35,17.37,3.73,11.25,11.83,17.71,22.97,20.8,3.5.97,7.06,1.61,10.96,2.03-1.08,1.19-2.02,2.19-2.7,3.39-1.06,1.88-1.75,3.89-1.99,6.02-.1.86-.46,1.25-1.21,1.56-9.15,3.72-17.25,1.16-22.55-7.16-2.51-3.94-5.92-6.64-10.59-7.56-1.45-.29-2.9-.33-4.31.19-1.23.45-1.45,1.23-.67,2.29.56.76,1.29,1.37,2.09,1.86,4.59,2.8,7.49,7.01,9.51,11.83,3.11,7.39,8.85,10.83,16.56,11.46,3.49.29,6.95-.08,10.44-.87,0,4.81-.09,10.14-.09,14.87,0,0,.23,14.95,19.89,14.95s20.2-14.95,20.2-14.95Z"/>
  </g>
</svg>