<?xml version="1.0" encoding="UTF-8"?>
<svg id="Layer_2" data-name="Layer 2" xmlns="http://www.w3.org/2000/svg" viewBox="0 0 135.3 135.3">
  <defs>
    <style>
      .cls-1 {
        fill: #fff;
        stroke-width: 0px;
      }
    </style>
  </defs>
  <g id="ELEMENTS">
    <g>
      <path class="cls-1" d="m103.47,24.16c-4.38,0-7.93,3.55-7.93,7.93s3.55,7.93,7.93,7.93,7.93-3.55,7.93-7.93-3.55-7.93-7.93-7.93Z"/>
      <path class="cls-1" d="m68.2,34.33c-18.37,0-33.32,14.95-33.32,33.32s14.95,33.32,33.32,33.32,33.32-14.95,33.32-33.32-14.95-33.32-33.32-33.32Zm0,54.66c-11.77,0-21.34-9.57-21.34-21.34s9.57-21.34,21.34-21.34,21.34,9.57,21.34,21.34-9.57,21.34-21.34,21.34Z"/>
      <path class="cls-1" d="m94.66,135.3h-54.02C18.23,135.3,0,117.07,0,94.66v-54.02C0,18.23,18.23,0,40.64,0h54.02c22.41,0,40.64,18.23,40.64,40.64v54.02c0,22.41-18.23,40.64-40.64,40.64ZM40.64,12.73c-15.39,0-27.91,12.52-27.91,27.91v54.02c0,15.39,12.52,27.91,27.91,27.91h54.02c15.39,0,27.91-12.52,27.91-27.91v-54.02c0-15.39-12.52-27.91-27.91-27.91h-54.02Z"/>
    </g>
  </g>
</svg>